<?xml version="1.0" standalone="no"?>
<!DOCTYPE svg PUBLIC "-//W3C//DTD SVG 20010904//EN"
 "http://www.w3.org/TR/2001/REC-SVG-20010904/DTD/svg10.dtd">
<svg version="1.0" xmlns="http://www.w3.org/2000/svg"
 width="256.000000pt" height="256.000000pt" viewBox="0 0 256.000000 256.000000"
 preserveAspectRatio="xMidYMid meet">

<g transform="translate(0.000000,256.000000) scale(0.100000,-0.100000)"
fill="#000000" stroke="none">
<path d="M1640 2296 c-97 -28 -162 -71 -207 -138 -54 -80 -62 -115 -88 -404
-14 -152 -25 -281 -25 -287 0 -7 15 -19 32 -27 73 -34 50 -40 -194 -42 -212
-3 -233 -5 -236 -20 -3 -17 31 -18 607 -18 336 0 611 3 611 8 -3 105 -63 669
-75 702 -37 106 -136 195 -250 225 -70 18 -114 18 -175 1z"/>
<path d="M616 1811 c-4 -5 2 -46 13 -90 15 -66 16 -81 5 -81 -11 0 -14 -27
-14 -135 l0 -135 75 0 75 0 0 135 0 135 -45 0 c-28 0 -47 5 -50 13 -2 6 -11
47 -20 90 -16 72 -26 90 -39 68z"/>
<path d="M227 1803 c-4 -3 -7 -17 -7 -30 0 -21 4 -23 54 -23 33 0 56 5 58 12
4 12 68 -195 68 -219 0 -9 18 -13 59 -13 l60 0 -10 33 c-5 17 -23 79 -39 136
-17 57 -32 107 -35 109 -3 3 -28 -1 -55 -10 -42 -14 -50 -14 -50 -2 0 10 -13
14 -48 14 -27 0 -52 -3 -55 -7z"/>
<path d="M220 1615 l0 -85 55 0 55 0 0 85 0 85 -55 0 -55 0 0 -85z"/>
<path d="M1294 1168 c-9 -79 -10 -82 -38 -89 -69 -19 -104 -94 -71 -154 32
-61 23 -60 544 -60 442 0 478 1 502 18 77 52 54 171 -37 196 -16 4 -30 14 -31
22 -1 8 -5 44 -8 82 l-7 67 -423 0 -423 0 -8 -82z"/>
<path d="M230 1103 c0 -59 10 -67 89 -71 93 -5 121 11 121 68 l0 40 -105 0
-105 0 0 -37z"/>
<path d="M230 657 c0 -24 5 -48 12 -55 7 -7 43 -12 93 -12 50 0 86 5 93 12 7
7 12 31 12 55 l0 43 -105 0 -105 0 0 -43z"/>
</g>
</svg>
